<?xml version="1.0" encoding="UTF-8"?>
<svg version="1.1" xmlns="http://www.w3.org/2000/svg" width="1024" height="1024">
<path d="M0 0 C2.97 0.33 5.94 0.66 9 1 C9 1.66 9 2.32 9 3 C9.99 3 10.98 3 12 3 C12 3.66 12 4.32 12 5 C12.99 5 13.98 5 15 5 C15 5.66 15 6.32 15 7 C16.65 7.66 18.3 8.32 20 9 C20 9.66 20 10.32 20 11 C20.5775 11.12375 21.155 11.2475 21.75 11.375 C24.02335767 12.00648824 25.9253529 12.88858191 28 14 C28 14.66 28 15.32 28 16 C28.66 16 29.32 16 30 16 C30 16.66 30 17.32 30 18 C30.99 18 31.98 18 33 18 C33 18.66 33 19.32 33 20 C33.66 20 34.32 20 35 20 C35 20.66 35 21.32 35 22 C35.66 22 36.32 22 37 22 C37 22.66 37 23.32 37 24 C37.66 24 38.32 24 39 24 C39 24.66 39 25.32 39 26 C39.66 26 40.32 26 41 26 C41 26.66 41 27.32 41 28 C41.639375 28.268125 42.27875 28.53625 42.9375 28.8125 C45 30 45 30 46 33 C46.66 33 47.32 33 48 33 C48 33.66 48 34.32 48 35 C48.66 35 49.32 35 50 35 C50 35.66 50 36.32 50 37 C50.66 37 51.32 37 52 37 C52 37.66 52 38.32 52 39 C52.66 39 53.32 39 54 39 C54 39.66 54 40.32 54 41 C54.5775 41.2475 55.155 41.495 55.75 41.75 C58.38704101 43.21502278 60.07358864 44.67502077 62 47 C62.75 49.75 62.75 49.75 63 52 C63.66 52 64.32 52 65 52 C65 52.66 65 53.32 65 54 C65.66 54 66.32 54 67 54 C67 54.99 67 55.98 67 57 C67.66 57 68.32 57 69 57 C69 57.66 69 58.32 69 59 C69.66 59 70.32 59 71 59 C71 60.32 71 61.64 71 63 C71.66 63 72.32 63 73 63 C73 63.99 73 64.98 73 66 C73.66 66 74.32 66 75 66 C75 66.99 75 67.98 75 69 C75.66 69 76.32 69 77 69 C77.33 71.31 77.66 73.62 78 76 C78.66 76 79.32 76 80 76 C80 77.32 80 78.64 80 80 C80.66 80 81.32 80 82 80 C83.49821059 83.37097383 84 85.20442119 84 89 C84.66 89 85.32 89 86 89 C86 90.98 86 92.96 86 95 C86.66 95 87.32 95 88 95 C88 96.98 88 98.96 88 101 C88.66 101 89.32 101 90 101 C90.144375 102.134375 90.28875 103.26875 90.4375 104.4375 C90.61171478 107.80777201 90.61171478 107.80777201 92 109 C93.2983979 117.8429228 93.15589542 126.85465514 93.13037109 135.77246094 C93.12500768 137.99681409 93.13035228 140.2209654 93.13671875 142.4453125 C93.14555555 159.19803166 93.14555555 159.19803166 92 167 C91.67 167.33 91.34 167.66 91 168 C90.76719635 169.9289445 90.53640466 171.85817447 90.3203125 173.7890625 C89.85841935 176.97725182 88.96005831 179.92781342 88 183 C87.34 183 86.68 183 86 183 C86 184.65 86 186.3 86 188 C85.34 188 84.68 188 84 188 C84 189.98 84 191.96 84 194 C83.34 194 82.68 194 82 194 C82 195.98 82 197.96 82 200 C81.34 200 80.68 200 80 200 C79.85691406 200.71542969 79.71382812 201.43085938 79.56640625 202.16796875 C78.7109375 206.4453125 77.85546875 210.72265625 77 215 C76.34 215 75.68 215 75 215 C75 217.31 75 219.62 75 222 C74.34 222 73.68 222 73 222 C73 223.98 73 225.96 73 228 C72.34 228 71.68 228 71 228 C71 230.97 71 233.94 71 237 C70.34 237 69.68 237 69 237 C69 245.58 69 254.16 69 263 C69.66 263 70.32 263 71 263 C71 264.98 71 266.96 71 269 C71.66 269 72.32 269 73 269 C73.4021875 270.175625 73.4021875 270.175625 73.8125 271.375 C74.84814432 274.28114923 74.84814432 274.28114923 78 276 C78 276.66 78 277.32 78 278 C78.66 278 79.32 278 80 278 C80 278.66 80 279.32 80 280 C80.66 280 81.32 280 82 280 C82 280.66 82 281.32 82 282 C83.65 282 85.3 282 87 282 C87 282.66 87 283.32 87 284 C92.28 284 97.56 284 103 284 C103 283.34 103 282.68 103 282 C104.98 282 106.96 282 109 282 C109 281.34 109 280.68 109 280 C109.66 280 110.32 280 111 280 C111 279.34 111 278.68 111 278 C111.99 278 112.98 278 114 278 C114 277.34 114 276.68 114 276 C115.32 275.67 116.64 275.34 118 275 C118 274.34 118 273.68 118 273 C118.66 273 119.32 273 120 273 C120 272.34 120 271.68 120 271 C120.66 271 121.32 271 122 271 C122 270.34 122 269.68 122 269 C122.66 269 123.32 269 124 269 C123.67 268.01 123.34 267.02 123 266 C123.66 265.01 124.32 264.02 125 263 C125.66 263 126.32 263 127 263 C127 262.01 127 261.02 127 260 C127.66 260 128.32 260 129 260 C129 258.68 129 257.36 129 256 C129.66 256 130.32 256 131 256 C131 254.68 131 253.36 131 252 C131.66 252 132.32 252 133 252 C133 250.68 133 249.36 133 248 C133.66 248 134.32 248 135 248 C135 246.35 135 244.7 135 243 C135.66 243 136.32 243 137 243 C136.979375 242.030625 136.95875 241.06125 136.9375 240.0625 C137 237 137 237 138 236 C138.04080783 234.00041636 138.04254356 231.99954746 138 230 C138.66 230 139.32 230 140 230 C140 226.7 140 223.4 140 220 C140.66 220 141.32 220 142 220 C141.98839844 219.00097656 141.97679687 218.00195312 141.96484375 216.97265625 C141.95130859 215.03712891 141.95130859 215.03712891 141.9375 213.0625 C141.92589844 211.77472656 141.91429687 210.48695313 141.90234375 209.16015625 C142 206 142 206 143 205 C143.15888092 202.71011219 143.25138073 200.41556559 143.31640625 198.12109375 C143.33718735 197.4344313 143.35796844 196.74776886 143.37937927 196.04029846 C143.44494143 193.83947065 143.50379015 191.63852025 143.5625 189.4375 C143.60567892 187.94855486 143.649293 186.45962227 143.69335938 184.97070312 C143.8006293 181.31393447 143.90187772 177.65702682 144 174 C145.65 174.33 147.3 174.66 149 175 C149.66 176.98 150.32 178.96 151 181 C151.66 181 152.32 181 153 181 C153 182.32 153 183.64 153 185 C153.66 185 154.32 185 155 185 C155.66 186.65 156.32 188.3 157 190 C157.66 190 158.32 190 159 190 C159 191.32 159 192.64 159 194 C159.66 194 160.32 194 161 194 C161 195.32 161 196.64 161 198 C161.66 198 162.32 198 163 198 C163 198.66 163 199.32 163 200 C163.66 200 164.32 200 165 200 C165.33 202.31 165.66 204.62 166 207 C166.66 207 167.32 207 168 207 C168 208.32 168 209.64 168 211 C168.66 211 169.32 211 170 211 C172 214 172 214 172 217 C172.66 217 173.32 217 174 217 C174 217.99 174 218.98 174 220 C174.66 220 175.32 220 176 220 C176 221.32 176 222.64 176 224 C176.66 224 177.32 224 178 224 C178 225.32 178 226.64 178 228 C178.66 228 179.32 228 180 228 C180.33 230.31 180.66 232.62 181 235 C181.66 235 182.32 235 183 235 C183 236.32 183 237.64 183 239 C183.66 239 184.32 239 185 239 C185 240.32 185 241.64 185 243 C185.66 243 186.32 243 187 243 C187 244.65 187 246.3 187 248 C187.66 248 188.32 248 189 248 C189 249.65 189 251.3 189 253 C189.66 253 190.32 253 191 253 C191 254.65 191 256.3 191 258 C191.66 258 192.32 258 193 258 C193.13277344 258.71027344 193.26554687 259.42054688 193.40234375 260.15234375 C193.57894531 261.07144531 193.75554687 261.99054688 193.9375 262.9375 C194.19853516 264.31228516 194.19853516 264.31228516 194.46484375 265.71484375 C194.77714988 267.95289844 194.77714988 267.95289844 196 269 C196.33333333 271.33333333 196.66666667 273.66666667 197 276 C197.33 276.33 197.66 276.66 198 277 C198.04092937 279.33297433 198.04241723 281.66705225 198 284 C198.66 284 199.32 284 200 284 C200 287.63 200 291.26 200 295 C200.66 295 201.32 295 202 295 C202 299.95 202 304.9 202 310 C202.66 310 203.32 310 204 310 C204 319.24 204 328.48 204 338 C205.65 337.67 207.3 337.34 209 337 C209 336.67 209 336.34 209 336 C214.28 336 219.56 336 225 336 C225.33 336.66 225.66 337.32 226 338 C226 336.35 226 334.7 226 333 C226.66 333 227.32 333 228 333 C228 331.02 228 329.04 228 327 C228.66 327 229.32 327 230 327 C230.103125 326.071875 230.20625 325.14375 230.3125 324.1875 C231.00531495 320.97535795 231.3879169 319.88069983 234 318 C234.66 318 235.32 318 236 318 C236.66 316.68 237.32 315.36 238 314 C238.66 314 239.32 314 240 314 C240 313.34 240 312.68 240 312 C241.65 312 243.3 312 245 312 C245 311.34 245 310.68 245 310 C253.01587506 306.37016979 260.42516209 306.08418036 269 308 C269 308.66 269 309.32 269 310 C270.32 310 271.64 310 273 310 C273 310.66 273 311.32 273 312 C273.66 312 274.32 312 275 312 C275 312.66 275 313.32 275 314 C275.99 314 276.98 314 278 314 C278 314.66 278 315.32 278 316 C278.99 316.33 279.98 316.66 281 317 C281.6875 319.0625 281.6875 319.0625 282 321 C282.66 321 283.32 321 284 321 C284 321.66 284 322.32 284 323 C284.66 323 285.32 323 286 323 C286 324.32 286 325.64 286 327 C286.66 327 287.32 327 288 327 C290.74904319 335.22950749 291.40900201 342.67173437 291.25 351.3125 C291.24484375 352.45267578 291.2396875 353.59285156 291.234375 354.76757812 C291.18575923 359.9725038 290.94959299 364.8709609 290 370 C289.34 370 288.68 370 288 370 C288 371.65 288 373.3 288 375 C286.68 375.66 285.36 376.32 284 377 C284 378.32 284 379.64 284 381 C283.34 381 282.68 381 282 381 C282 381.66 282 382.32 282 383 C281.34 383 280.68 383 280 383 C280 383.66 280 384.32 280 385 C279.34 385 278.68 385 278 385 C277.67 386.32 277.34 387.64 277 389 C275.68 389 274.36 389 273 389 C273 389.66 273 390.32 273 391 C267.61549131 393.22807256 262.78705557 393.30077211 257.0625 393.25 C256.19431641 393.25773437 255.32613281 393.26546875 254.43164062 393.2734375 C249.23488887 393.25772548 244.91926283 392.6866044 240 391 C240 390.34 240 389.68 240 389 C239.34 389 238.68 389 238 389 C238 388.34 238 387.68 238 387 C237.34 387 236.68 387 236 387 C236 386.34 236 385.68 236 385 C235.34 385 234.68 385 234 385 C234 384.34 234 383.68 234 383 C233.34 383 232.68 383 232 383 C232 382.34 232 381.68 232 381 C231.34 381 230.68 381 230 381 C230 379.35 230 377.7 230 376 C229.34 376 228.68 376 228 376 C227.67 372.7 227.34 369.4 227 366 C218.75 366 210.5 366 202 366 C202 370.95 202 375.9 202 381 C201.34 381 200.68 381 200 381 C200.02320313 381.58007812 200.04640625 382.16015625 200.0703125 382.7578125 C200.18250423 387.61411166 199.87514915 391.42932395 198 396 C197.34 396 196.68 396 196 396 C196.0309375 397.60875 196.0309375 397.60875 196.0625 399.25 C196.0142016 402.14790424 195.86844115 404.28612141 195 407 C194.34 407 193.68 407 193 407 C193 408.98 193 410.96 193 413 C192.34 413 191.68 413 191 413 C191 414.98 191 416.96 191 419 C190.34 419 189.68 419 189 419 C189 420.65 189 422.3 189 424 C188.34 424 187.68 424 187 424 C186.8659375 424.85980469 186.731875 425.71960938 186.59375 426.60546875 C186.02004972 429.88537364 185.30456977 433.08215237 184.5 436.3125 C184.2421875 437.36050781 183.984375 438.40851563 183.71875 439.48828125 C183 442 183 442 182 443 C181.66073053 445.33247761 181.32759934 447.66585471 181 450 C180.67 450.66 180.34 451.32 180 452 C179.9310528 453.37342831 179.91532292 454.75002102 179.9375 456.125 C179.9684375 458.043125 179.9684375 458.043125 180 460 C179.34 460 178.68 460 178 460 C178 463.3 178 466.6 178 470 C180.64 470.33 183.28 470.66 186 471 C186 470.34 186 469.68 186 469 C190.95 469 195.9 469 201 469 C201.33 469.66 201.66 470.32 202 471 C201.95875 470.29875 201.9175 469.5975 201.875 468.875 C202.01668332 465.61628372 202.86734686 463.0440053 204 460 C204.66 460 205.32 460 206 460 C206.061875 458.7315625 206.061875 458.7315625 206.125 457.4375 C207.26386428 452.96339031 209.57780066 450.06817872 213 447 C213.66 447 214.32 447 215 447 C215 446.34 215 445.68 215 445 C215.66 445 216.32 445 217 445 C217 444.34 217 443.68 217 443 C218.32 443 219.64 443 221 443 C221 442.34 221 441.68 221 441 C222.98 441 224.96 441 227 441 C227 440.34 227 439.68 227 439 C230.63 439 234.26 439 238 439 C238 439.66 238 440.32 238 441 C240.31 441 242.62 441 245 441 C245 441.66 245 442.32 245 443 C245.99 443 246.98 443 248 443 C248 443.66 248 444.32 248 445 C248.66 445 249.32 445 250 445 C250 445.66 250 446.32 250 447 C251.32 447 252.64 447 254 447 C254 447.66 254 448.32 254 449 C254.66 449 255.32 449 256 449 C256.66 450.65 257.32 452.3 258 454 C258.66 454 259.32 454 260 454 C260 454.66 260 455.32 260 456 C260.66 456 261.32 456 262 456 C262 457.32 262 458.64 262 460 C262.66 460 263.32 460 264 460 C264 461.65 264 463.3 264 465 C264.66 465 265.32 465 266 465 C268.27196011 471.34706316 268.29912455 477.30268632 268.25 484 C268.25773437 485.05445313 268.26546875 486.10890625 268.2734375 487.1953125 C268.25925408 492.85449745 267.91130955 497.66046856 266 503 C265.34 503 264.68 503 264 503 C264 504.65 264 506.3 264 508 C263.34 508 262.68 508 262 508 C262 508.66 262 509.32 262 510 C261.34 510 260.68 510 260 510 C260 511.32 260 512.64 260 514 C259.34 514 258.68 514 258 514 C258 514.66 258 515.32 258 516 C257.34 516 256.68 516 256 516 C256 516.66 256 517.32 256 518 C255.34 518 254.68 518 254 518 C254 518.66 254 519.32 254 520 C253.34 520 252.68 520 252 520 C252 520.66 252 521.32 252 522 C251.29875 522.268125 250.5975 522.53625 249.875 522.8125 C246.97436729 523.93244566 246.97436729 523.93244566 244.35546875 525.5546875 C240.19275005 527.34770952 236.90746472 527.41009748 232.4375 527.3125 C231.69564453 527.31572266 230.95378906 527.31894531 230.18945312 527.32226562 C226.02112548 527.28143606 222.80586901 526.89162994 219 525 C219 524.34 219 523.68 219 523 C217.35 522.67 215.7 522.34 214 522 C214 521.34 214 520.68 214 520 C213.34 520 212.68 520 212 520 C212 519.34 212 518.68 212 518 C211.34 518 210.68 518 210 518 C210 517.34 210 516.68 210 516 C209.34 516 208.68 516 208 516 C208 515.34 208 514.68 208 514 C207.34 514 206.68 514 206 514 C204.24252386 509.49646738 203.80705592 505.82360189 204 501 C203.34 501 202.68 501 202 501 C202 500.34 202 499.68 202 499 C193.42 499 184.84 499 176 499 C176 500.98 176 502.96 176 505 C175.34 505 174.68 505 174 505 C174.00785522 506.52584717 174.00785522 506.52584717 174.01586914 508.08251953 C174.03423068 511.92560922 174.04554352 515.7686952 174.05493164 519.61181641 C174.05990175 521.2622137 174.06668017 522.91260674 174.07543945 524.56298828 C174.12352093 533.86816784 173.99880469 543.03664443 173.11889648 552.30810547 C172.8347303 555.10049208 172.8347303 555.10049208 174 558 C174.15370348 560.72883073 174.25728265 563.43697142 174.31640625 566.16796875 C174.33718735 566.96278152 174.35796844 567.7575943 174.37937927 568.57649231 C174.44472087 571.11340763 174.50368808 573.65042573 174.5625 576.1875 C174.60569986 577.90821372 174.64931463 579.62891708 174.69335938 581.34960938 C174.80038648 585.56630113 174.90169724 589.7830962 175 594 C175.33 594 175.66 594 176 594 C176 595.98 176 597.96 176 600 C184.58 600 193.16 600 202 600 C202 599.34 202 598.68 202 598 C203.32 598 204.64 598 206 598 C206 596.35 206 594.7 206 593 C206.66 593 207.32 593 208 593 C208 591.02 208 589.04 208 587 C208.66 587 209.32 587 210 587 C210 585.68 210 584.36 210 583 C211.94125344 581.26526288 213.94272868 579.5954349 216 578 C216.33 577.34 216.66 576.68 217 576 C219.62581138 574.42451317 220.87099787 574 224 574 C224 573.34 224 572.68 224 572 C225.98 572 227.96 572 230 572 C230 571.34 230 570.68 230 570 C233.63 570 237.26 570 241 570 C241 570.66 241 571.32 241 572 C242.98 572 244.96 572 247 572 C247 572.66 247 573.32 247 574 C247.99 574 248.98 574 250 574 C250 574.66 250 575.32 250 576 C250.61875 576.144375 251.2375 576.28875 251.875 576.4375 C254 577 254 577 256 578 C256 578.66 256 579.32 256 580 C256.66 580 257.32 580 258 580 C258 580.66 258 581.32 258 582 C258.66 582 259.32 582 260 582 C260 582.99 260 583.98 260 585 C260.66 585 261.32 585 262 585 C262 585.66 262 586.32 262 587 C262.66 587 263.32 587 264 587 C264 588.32 264 589.64 264 591 C264.66 591 265.32 591 266 591 C267.906684 595.81262567 268.29357986 600.16986867 268.265625 605.28515625 C268.26753845 606.06386581 268.2694519 606.84257538 268.27142334 607.6448822 C268.27277813 609.28287074 268.26913127 610.92087027 268.26074219 612.55883789 C268.2500178 615.05835153 268.2606687 617.55714891 268.2734375 620.05664062 C268.27211606 621.65364741 268.269554 623.25065375 268.265625 624.84765625 C268.26967346 625.59048355 268.27372192 626.33331085 268.27789307 627.09864807 C268.2412652 631.17145069 267.8112296 634.33392379 266 638 C265.34 638 264.68 638 264 638 C264 638.66 264 639.32 264 640 C263.34 640 262.68 640 262 640 C262 640.99 262 641.98 262 643 C261.34 643 260.68 643 260 643 C260 643.66 260 644.32 260 645 C259.34 645 258.68 645 258 645 C258 645.66 258 646.32 258 647 C257.34 647 256.68 647 256 647 C256 647.66 256 648.32 256 649 C255.34 649 254.68 649 254 649 C254 649.66 254 650.32 254 651 C253.01 651 252.02 651 251 651 C251 651.66 251 652.32 251 653 C240.15828282 657.41019004 229.91263213 657.13842483 219 653 C219 652.34 219 651.68 219 651 C218.01 651 217.02 651 216 651 C216 650.34 216 649.68 216 649 C215.34 649 214.68 649 214 649 C214 648.34 214 647.68 214 647 C213.01 647 212.02 647 211 647 C210.67 645.02 210.34 643.04 210 641 C209.34 641 208.68 641 208 641 C208 640.01 208 639.02 208 638 C207.34 638 206.68 638 206 638 C205.77213542 635.94921875 205.54427083 633.8984375 205.31640625 631.84765625 C205.18113386 629.98859771 205.18113386 629.98859771 204 629 C202.00200428 628.90126184 200.00042842 628.87028201 198 628.875 C196.906875 628.87242187 195.81375 628.86984375 194.6875 628.8671875 C192.08169646 628.69452245 192.08169646 628.69452245 191 630 C188.98035801 630.07244053 186.95832876 630.08377188 184.9375 630.0625 C183.83277344 630.05347656 182.72804688 630.04445313 181.58984375 630.03515625 C180.30787109 630.01775391 180.30787109 630.01775391 179 630 C179.144375 630.61746094 179.28875 631.23492188 179.4375 631.87109375 C180.7197599 637.72140455 181.19308096 643.01449037 181 649 C181.66 649 182.32 649 183 649 C183 651.97 183 654.94 183 658 C183.66 658 184.32 658 185 658 C185 660.64 185 663.28 185 666 C185.66 666 186.32 666 187 666 C187 668.97 187 671.94 187 675 C187.66 675 188.32 675 189 675 C189 677.64 189 680.28 189 683 C189.66 683 190.32 683 191 683 C191 685.31 191 687.62 191 690 C191.66 690 192.32 690 193 690 C193 694.29 193 698.58 193 703 C192.34 703 191.68 703 191 703 C191 704.32 191 705.64 191 707 C190.34 707 189.68 707 189 707 C189 707.66 189 708.32 189 709 C188.34 709 187.68 709 187 709 C187 709.66 187 710.32 187 711 C185.68 711 184.36 711 183 711 C183 711.66 183 712.32 183 713 C181.730447 713.64834654 180.45930294 714.29357815 179.1875 714.9375 C178.47980469 715.29714844 177.77210938 715.65679688 177.04296875 716.02734375 C175 717 175 717 172 718 C172 718.66 172 719.32 172 720 C171.34 720 170.68 720 170 720 C170 720.66 170 721.32 170 722 C168.68 722 167.36 722 166 722 C166 722.66 166 723.32 166 724 C165.34 724 164.68 724 164 724 C164 724.66 164 725.32 164 726 C163.34 726 162.68 726 162 726 C162 726.66 162 727.32 162 728 C160.625 729.625 160.625 729.625 159 731 C158.34 731 157.68 731 157 731 C157 731.66 157 732.32 157 733 C156.34 733 155.68 733 155 733 C155 733.66 155 734.32 155 735 C154.34 735 153.68 735 153 735 C153 735.66 153 736.32 153 737 C152.34 737 151.68 737 151 737 C151 737.66 151 738.32 151 739 C150.34 739 149.68 739 149 739 C149 739.66 149 740.32 149 741 C147.625 742.625 147.625 742.625 146 744 C145.34 744 144.68 744 144 744 C144 744.66 144 745.32 144 746 C143.34 746 142.68 746 142 746 C142 746.66 142 747.32 142 748 C141.34 748 140.68 748 140 748 C140 749.32 140 750.64 140 752 C139.34 752 138.68 752 138 752 C138 752.66 138 753.32 138 754 C137.34 754 136.68 754 136 754 C135.67 755.65 135.34 757.3 135 759 C134.34 759 133.68 759 133 759 C133 759.99 133 760.98 133 762 C132.34 762 131.68 762 131 762 C131 762.99 131 763.98 131 765 C130.34 765 129.68 765 129 765 C129 766.32 129 767.64 129 769 C128.34 769 127.68 769 127 769 C127 769.99 127 770.98 127 772 C126.34 772 125.68 772 125 772 C125 773.32 125 774.64 125 776 C124.34 776 123.68 776 123 776 C122.87625 777.11375 122.7525 778.2275 122.625 779.375 C122 783 122 783 120 785 C120 786.32 120 787.64 120 789 C119.34 789 118.68 789 118 789 C118 790.32 118 791.64 118 793 C117.34 793 116.68 793 116 793 C116 795.31 116 797.62 116 800 C115.34 800 114.68 800 114 800 C114.0309375 801.7015625 114.0309375 801.7015625 114.0625 803.4375 C114 807 114 807 113 808 C112.76807135 809.51469448 112.58784762 811.03754562 112.4375 812.5625 C112.35371094 813.38878906 112.26992188 814.21507812 112.18359375 815.06640625 C112.12300781 815.70449219 112.06242187 816.34257813 112 817 C111.34 817 110.68 817 110 817 C110 871.78 110 926.56 110 983 C63.14 983 16.28 983 -32 983 C-32 930.2 -32 877.4 -32 823 C-32.66 823 -33.32 823 -34 823 C-34 818.71 -34 814.42 -34 810 C-34.66 810 -35.32 810 -36 810 C-36.22786458 807.94921875 -36.45572917 805.8984375 -36.68359375 803.84765625 C-36.81886614 801.98859771 -36.81886614 801.98859771 -38 801 C-38 799.33333333 -38 797.66666667 -38 796 C-38.33 795.67 -38.66 795.34 -39 795 C-39.04080783 793.00041636 -39.04254356 790.99954746 -39 789 C-39.66 789 -40.32 789 -41 789 C-42.49821059 785.62902617 -43 783.79557881 -43 780 C-43.66 780 -44.32 780 -45 780 C-45 778.68 -45 777.36 -45 776 C-45.66 776 -46.32 776 -47 776 C-47 774.68 -47 773.36 -47 772 C-47.66 772 -48.32 772 -49 772 C-49 771.01 -49 770.02 -49 769 C-49.66 769 -50.32 769 -51 769 C-51.12375 768.46375 -51.2475 767.9275 -51.375 767.375 C-52.12206016 764.5361714 -53.05303364 761.77776798 -54 759 C-54.66 759 -55.32 759 -56 759 C-56 758.01 -56 757.02 -56 756 C-56.66 756 -57.32 756 -58 756 C-58 755.34 -58 754.68 -58 754 C-58.66 754 -59.32 754 -60 754 C-60 752.68 -60 751.36 -60 750 C-60.66 750 -61.32 750 -62 750 C-67 744.52380952 -67 744.52380952 -67 742 C-67.99 741.67 -68.98 741.34 -70 741 C-70.6875 738.9375 -70.6875 738.9375 -71 737 C-71.66 737 -72.32 737 -73 737 C-73 736.34 -73 735.68 -73 735 C-73.66 735 -74.32 735 -75 735 C-75 734.34 -75 733.68 -75 733 C-75.66 733 -76.32 733 -77 733 C-77 732.34 -77 731.68 -77 731 C-77.7425 730.731875 -78.485 730.46375 -79.25 730.1875 C-81.89061949 729.04723249 -83.85552844 727.90619694 -86 726 C-86 725.34 -86 724.68 -86 724 C-86.66 724 -87.32 724 -88 724 C-88 723.34 -88 722.68 -88 722 C-88.66 722 -89.32 722 -90 722 C-90 721.34 -90 720.68 -90 720 C-90.99 720 -91.98 720 -93 720 C-93 719.34 -93 718.68 -93 718 C-93.66 718 -94.32 718 -95 718 C-95 717.34 -95 716.68 -95 716 C-96.32 716 -97.64 716 -99 716 C-99 715.34 -99 714.68 -99 714 C-103.455 712.515 -103.455 712.515 -108 711 C-108 710.34 -108 709.68 -108 709 C-108.66 709 -109.32 709 -110 709 C-110 708.34 -110 707.68 -110 707 C-110.66 707 -111.32 707 -112 707 C-112 705.68 -112 704.36 -112 703 C-112.66 703 -113.32 703 -114 703 C-114 697.39 -114 691.78 -114 686 C-113.34 686 -112.68 686 -112 686 C-112 683.69 -112 681.38 -112 679 C-111.34 679 -110.68 679 -110 679 C-110.185625 677.865625 -110.37125 676.73125 -110.5625 675.5625 C-110.706875 674.386875 -110.85125 673.21125 -111 672 C-110.67 671.67 -110.34 671.34 -110 671 C-109.76807135 669.48530552 -109.58784762 667.96245438 -109.4375 666.4375 C-109.31181641 665.19806641 -109.31181641 665.19806641 -109.18359375 663.93359375 C-109.12300781 663.29550781 -109.06242187 662.65742187 -109 662 C-108.34 662 -107.68 662 -107 662 C-107 659.03 -107 656.06 -107 653 C-106.34 653 -105.68 653 -105 653 C-105.01160156 652.36191406 -105.02320313 651.72382812 -105.03515625 651.06640625 C-105.04417969 650.24011719 -105.05320312 649.41382813 -105.0625 648.5625 C-105.07410156 647.73878906 -105.08570313 646.91507813 -105.09765625 646.06640625 C-105 644 -105 644 -104 643 C-103.71606022 640.48510484 -103.5518876 637.97010418 -103.37890625 635.4453125 C-103 633 -103 633 -101 630 C-109.91 630 -118.82 630 -128 630 C-127.505 631.485 -127.505 631.485 -127 633 C-127.77734375 635.48046875 -127.77734375 635.48046875 -128.9375 638.1875 C-129.31777344 639.08855469 -129.69804687 639.98960937 -130.08984375 640.91796875 C-130.39019531 641.60503906 -130.69054687 642.29210937 -131 643 C-131.66 643 -132.32 643 -133 643 C-133 643.66 -133 644.32 -133 645 C-133.66 645 -134.32 645 -135 645 C-135.33 646.32 -135.66 647.64 -136 649 C-136.99 649 -137.98 649 -139 649 C-139 649.66 -139 650.32 -139 651 C-139.66 651 -140.32 651 -141 651 C-141 651.66 -141 652.32 -141 653 C-142.32 653 -143.64 653 -145 653 C-145 653.66 -145 654.32 -145 655 C-155.12471337 657.42836452 -166.35654296 656.89447304 -176 653 C-176 652.34 -176 651.68 -176 651 C-176.66 651 -177.32 651 -178 651 C-178 650.34 -178 649.68 -178 649 C-178.99 649 -179.98 649 -181 649 C-181 648.34 -181 647.68 -181 647 C-181.66 647 -182.32 647 -183 647 C-183.99 644.03 -183.99 644.03 -185 641 C-185.66 641 -186.32 641 -187 641 C-187 640.01 -187 639.02 -187 638 C-187.66 638 -188.32 638 -189 638 C-189 636.68 -189 635.36 -189 634 C-189.66 634 -190.32 634 -191 634 C-191.76382268 629.92830176 -192.1282321 626.07818429 -192.1328125 621.9375 C-192.13410156 620.81085937 -192.13539063 619.68421875 -192.13671875 618.5234375 C-192.13285156 617.36070312 -192.12898438 616.19796875 -192.125 615 C-192.12886719 613.83726562 -192.13273437 612.67453125 -192.13671875 611.4765625 C-192.13542969 610.34992187 -192.13414062 609.22328125 -192.1328125 608.0625 C-192.13168457 607.04285156 -192.13055664 606.02320313 -192.12939453 604.97265625 C-191.99612764 601.91103808 -191.56456067 599.00949521 -191 596 C-190.34 596 -189.68 596 -189 596 C-189 594.35 -189 592.7 -189 591 C-188.34 591 -187.68 591 -187 591 C-187 589.68 -187 588.36 -187 587 C-186.34 587 -185.68 587 -185 587 C-184.7525 586.2575 -184.505 585.515 -184.25 584.75 C-182.89534961 581.76976913 -181.4898459 580.10080748 -179 578 C-178.34 578 -177.68 578 -177 578 C-177 577.34 -177 576.68 -177 576 C-176.01 576 -175.02 576 -174 576 C-174 575.34 -174 574.68 -174 574 C-173.01 574 -172.02 574 -171 574 C-171 573.34 -171 572.68 -171 572 C-169.35 572 -167.7 572 -166 572 C-166 571.34 -166 570.68 -166 570 C-161.38 570 -156.76 570 -152 570 C-152 570.66 -152 571.32 -152 572 C-150.35 572 -148.7 572 -147 572 C-147 572.66 -147 573.32 -147 574 C-145.68 574 -144.36 574 -143 574 C-143 574.66 -143 575.32 -143 576 C-142.34 576 -141.68 576 -141 576 C-141 576.66 -141 577.32 -141 578 C-140.4225 578.0825 -139.845 578.165 -139.25 578.25 C-136.3460664 579.21797787 -134.96259396 580.68694284 -133 583 C-133 583.66 -133 584.32 -133 585 C-132.34 585 -131.68 585 -131 585 C-131 586.98 -131 588.96 -131 591 C-130.34 591 -129.68 591 -129 591 C-129 592.32 -129 593.64 -129 595 C-128.34 595 -127.68 595 -127 595 C-127 596.32 -127 597.64 -127 599 C-117.1 599.33 -107.2 599.66 -97 600 C-97 566.67 -97 533.34 -97 499 C-105.91 499 -114.82 499 -124 499 C-124 500.98 -124 502.96 -124 505 C-124.66 505 -125.32 505 -126 505 C-126.33 507.31 -126.66 509.62 -127 512 C-127.66 512 -128.32 512 -129 512 C-129 513.32 -129 514.64 -129 516 C-129.66 516 -130.32 516 -131 516 C-131 516.66 -131 517.32 -131 518 C-131.66 518 -132.32 518 -133 518 C-133 518.66 -133 519.32 -133 520 C-133.66 520 -134.32 520 -135 520 C-135 520.66 -135 521.32 -135 522 C-135.92683594 522.27714844 -136.85367188 522.55429687 -137.80859375 522.83984375 C-139.00613281 523.20207031 -140.20367187 523.56429687 -141.4375 523.9375 C-142.63246094 524.29714844 -143.82742188 524.65679688 -145.05859375 525.02734375 C-147.85867545 525.70889142 -147.85867545 525.70889142 -149 527 C-156.04024529 527.69716715 -161.77519616 527.29492476 -168.0625 523.97265625 C-170.03063738 522.98461954 -171.85213431 522.45546259 -174 522 C-174 521.34 -174 520.68 -174 520 C-174.66 520 -175.32 520 -176 520 C-176 519.34 -176 518.68 -176 518 C-176.66 518 -177.32 518 -178 518 C-178 517.34 -178 516.68 -178 516 C-178.66 516 -179.32 516 -180 516 C-180 515.01 -180 514.02 -180 513 C-180.66 512.67 -181.32 512.34 -182 512 C-185.8930254 506.3226713 -187.07611282 500.73117801 -188 494 C-188.33 493.67 -188.66 493.34 -189 493 C-189.08669432 491.5112814 -189.10703494 490.018555 -189.09765625 488.52734375 C-189.09443359 487.62822266 -189.09121094 486.72910156 -189.08789062 485.80273438 C-189.07951172 484.85720703 -189.07113281 483.91167969 -189.0625 482.9375 C-189.05798828 481.98810547 -189.05347656 481.03871094 -189.04882812 480.06054688 C-189.0370011 477.70696935 -189.02052025 475.35351523 -189 473 C-188.34 473 -187.68 473 -187 473 C-187.04125 471.96875 -187.0825 470.9375 -187.125 469.875 C-187.00424851 466.13170373 -186.35127982 463.46265453 -185 460 C-184.34 460 -183.68 460 -183 460 C-183.33 459.01 -183.66 458.02 -184 457 C-182.1875 454.3125 -182.1875 454.3125 -180 452 C-179.34 452 -178.68 452 -178 452 C-178 451.01 -178 450.02 -178 449 C-177.34 449 -176.68 449 -176 449 C-176 448.34 -176 447.68 -176 447 C-173 445 -173 445 -170 445 C-170 444.34 -170 443.68 -170 443 C-169.01 443 -168.02 443 -167 443 C-167 442.34 -167 441.68 -167 441 C-165.35 441 -163.7 441 -162 441 C-162 440.34 -162 439.68 -162 439 C-156.06 439 -150.12 439 -144 439 C-144 439.66 -144 440.32 -144 441 C-142.68 441 -141.36 441 -140 441 C-140 441.66 -140 442.32 -140 443 C-139.01 443 -138.02 443 -137 443 C-137 443.66 -137 444.32 -137 445 C-136.34 445 -135.68 445 -135 445 C-135 445.66 -135 446.32 -135 447 C-134.34 447 -133.68 447 -133 447 C-127.28571429 452.14285714 -127.28571429 452.14285714 -126 456 C-125.875 459.25 -125.875 459.25 -126 462 C-125.34 462 -124.68 462 -124 462 C-124 463.65 -124 465.3 -124 467 C-115.75 467 -107.5 467 -99 467 C-98.98584708 461.51257291 -98.98584708 461.51257291 -101 457 C-101.07205511 455.31391034 -101.08386068 453.62499341 -101.0625 451.9375 C-101.05347656 451.01839844 -101.04445313 450.09929687 -101.03515625 449.15234375 C-101.02355469 448.44207031 -101.01195312 447.73179687 -101 447 C-101.66 447 -102.32 447 -103 447 C-103.06058594 446.36191406 -103.12117188 445.72382813 -103.18359375 445.06640625 C-103.26738281 444.24011719 -103.35117187 443.41382813 -103.4375 442.5625 C-103.51871094 441.73878906 -103.59992188 440.91507812 -103.68359375 440.06640625 C-103.78930815 438.01337975 -103.78930815 438.01337975 -105 437 C-105.04092937 434.66702567 -105.04241723 432.33294775 -105 430 C-105.66 430 -106.32 430 -107 430 C-107 427.36 -107 424.72 -107 422 C-107.66 422 -108.32 422 -109 422 C-109.144375 420.865625 -109.28875 419.73125 -109.4375 418.5625 C-109.61171478 415.19222799 -109.61171478 415.19222799 -111 414 C-111.57725112 410.64472786 -112.03085686 407.27821628 -112.5 403.90625 C-112.69242705 401.11524717 -112.69242705 401.11524717 -114 400 C-114.14115161 397.32941149 -114.04247107 394.67567762 -114 392 C-114.66 392 -115.32 392 -116 392 C-116 388.37 -116 384.74 -116 381 C-116.66 381 -117.32 381 -118 381 C-118.06058594 379.95199219 -118.12117188 378.90398437 -118.18359375 377.82421875 C-118.26801738 376.44529952 -118.35266447 375.06639395 -118.4375 373.6875 C-118.47681641 372.99720703 -118.51613281 372.30691406 -118.55664062 371.59570312 C-118.74927415 368.52838465 -119.02322717 365.93031848 -120 363 C-120.886875 363.165 -121.77375 363.33 -122.6875 363.5 C-136.90455272 365.54772364 -136.90455272 365.54772364 -142 363 C-142 364.65 -142 366.3 -142 368 C-142.66 368 -143.32 368 -144 368 C-144 369.98 -144 371.96 -144 374 C-144.66 374 -145.32 374 -146 374 C-146 375.32 -146 376.64 -146 378 C-146.66 378 -147.32 378 -148 378 C-148 378.99 -148 379.98 -148 381 C-148.66 381 -149.32 381 -150 381 C-150 381.66 -150 382.32 -150 383 C-150.66 383 -151.32 383 -152 383 C-152 383.66 -152 384.32 -152 385 C-152.66 385 -153.32 385 -154 385 C-154 385.66 -154 386.32 -154 387 C-154.66 387 -155.32 387 -156 387 C-156 387.66 -156 388.32 -156 389 C-166.36987072 394.52131819 -177.93383093 393.90260172 -189 391 C-189 390.34 -189 389.68 -189 389 C-189.66 389 -190.32 389 -191 389 C-191 388.34 -191 387.68 -191 387 C-191.99 387 -192.98 387 -194 387 C-194 386.34 -194 385.68 -194 385 C-194.66 385 -195.32 385 -196 385 C-198 382 -198 382 -198 379 C-198.66 379 -199.32 379 -200 379 C-200 378.34 -200 377.68 -200 377 C-200.66 377 -201.32 377 -202 377 C-202 376.01 -202 375.02 -202 374 C-202.66 374 -203.32 374 -204 374 C-204 372.02 -204 370.04 -204 368 C-204.66 368 -205.32 368 -206 368 C-206.88465998 364.20132099 -207.1287169 360.67791833 -207.1328125 356.78125 C-207.13410156 355.60175781 -207.13539063 354.42226563 -207.13671875 353.20703125 C-207.13285156 351.98371094 -207.12898438 350.76039063 -207.125 349.5 C-207.12886719 348.27667969 -207.13273437 347.05335938 -207.13671875 345.79296875 C-207.13542969 344.61347656 -207.13414062 343.43398438 -207.1328125 342.21875 C-207.13168457 341.14560547 -207.13055664 340.07246094 -207.12939453 338.96679688 C-207.008713 336.19977419 -206.62707019 333.69260327 -206 331 C-205.34 331 -204.68 331 -204 331 C-204 329.02 -204 327.04 -204 325 C-203.34 325 -202.68 325 -202 325 C-202 324.34 -202 323.68 -202 323 C-201.34 323 -200.68 323 -200 323 C-199.85691406 322.12601562 -199.85691406 322.12601562 -199.7109375 321.234375 C-198.84654218 318.517704 -197.64459482 317.24403033 -195.625 315.25 C-195.01914062 314.63640625 -194.41328125 314.0228125 -193.7890625 313.390625 C-192 312 -192 312 -189 312 C-189 311.34 -189 310.68 -189 310 C-188.34 310 -187.68 310 -187 310 C-187 309.34 -187 308.68 -187 308 C-182.40105013 306.69516646 -177.93820238 306.77756027 -173.1875 306.75 C-171.87168945 306.7190625 -171.87168945 306.7190625 -170.52929688 306.6875 C-164.89268893 306.6537731 -161.0146977 307.40029314 -156 310 C-156 310.66 -156 311.32 -156 312 C-155.34 312 -154.68 312 -154 312 C-154 312.66 -154 313.32 -154 314 C-153.34 314 -152.68 314 -152 314 C-152 314.66 -152 315.32 -152 316 C-151.34 316 -150.68 316 -150 316 C-150 316.66 -150 317.32 -150 318 C-149.34 318 -148.68 318 -148 318 C-148 318.66 -148 319.32 -148 320 C-147.34 320 -146.68 320 -146 320 C-146 321.65 -146 323.3 -146 325 C-145.34 325 -144.68 325 -144 325 C-143.67 327.64 -143.34 330.28 -143 333 C-135.41 333.33 -127.82 333.66 -120 334 C-120 330.7 -120 327.4 -120 324 C-119.67 323.67 -119.34 323.34 -119 323 C-118.76518307 320.81707226 -118.58636677 318.62796826 -118.4375 316.4375 C-118.35371094 315.23996094 -118.26992188 314.04242188 -118.18359375 312.80859375 C-118.12300781 311.88175781 -118.06242187 310.95492188 -118 310 C-117.34 310 -116.68 310 -116 310 C-116 307.03 -116 304.06 -116 301 C-115.34 301 -114.68 301 -114 301 C-114 298.36 -114 295.72 -114 293 C-113.34 293 -112.68 293 -112 293 C-112 290.69 -112 288.38 -112 286 C-111.34 286 -110.68 286 -110 286 C-110.309375 284.824375 -110.309375 284.824375 -110.625 283.625 C-110.74875 282.75875 -110.8725 281.8925 -111 281 C-110.34 280.34 -109.68 279.68 -109 279 C-109 277.68 -109 276.36 -109 275 C-108.34 275 -107.68 275 -107 275 C-107 273.68 -107 272.36 -107 271 C-106.34 271 -105.68 271 -105 271 C-105.0825 270.34 -105.165 269.68 -105.25 269 C-104.89896359 264.78756306 -103.03039227 261.65289323 -101 258 C-100.34 258 -99.68 258 -99 258 C-99 256.68 -99 255.36 -99 254 C-98.34 254 -97.68 254 -97 254 C-97 252.68 -97 251.36 -97 250 C-96.34 250 -95.68 250 -95 250 C-94.67 248.35 -94.34 246.7 -94 245 C-93.34 245 -92.68 245 -92 245 C-92 243.68 -92 242.36 -92 241 C-91.34 241 -90.68 241 -90 241 C-90 240.34 -90 239.68 -90 239 C-89.34 239 -88.68 239 -88 239 C-88 237.68 -88 236.36 -88 235 C-87.34 235 -86.68 235 -86 235 C-86 234.34 -86 233.68 -86 233 C-85.34 233 -84.68 233 -84 233 C-84 232.01 -84 231.02 -84 230 C-83.34 230 -82.68 230 -82 230 C-82 229.34 -82 228.68 -82 228 C-81.34 228 -80.68 228 -80 228 C-79.505 225.03 -79.505 225.03 -79 222 C-78.34 222 -77.68 222 -77 222 C-77 221.34 -77 220.68 -77 220 C-76.34 220 -75.68 220 -75 220 C-75 219.34 -75 218.68 -75 218 C-74.34 218 -73.68 218 -73 218 C-73 217.01 -73 216.02 -73 215 C-72.34 215 -71.68 215 -71 215 C-71 214.34 -71 213.68 -71 213 C-70.34 213 -69.68 213 -69 213 C-69 212.34 -69 211.68 -69 211 C-68.34 211 -67.68 211 -67 211 C-67 210.34 -67 209.68 -67 209 C-66.34 209 -65.68 209 -65 209 C-64.731875 208.030625 -64.46375 207.06125 -64.1875 206.0625 C-63.795625 205.051875 -63.40375 204.04125 -63 203 C-62.01 202.67 -61.02 202.34 -60 202 C-60 201.34 -60 200.68 -60 200 C-59.34 200 -58.68 200 -58 200 C-58 199.34 -58 198.68 -58 198 C-57.34 198 -56.68 198 -56 198 C-56 197.34 -56 196.68 -56 196 C-55.34 196 -54.68 196 -54 196 C-54 194.68 -54 193.36 -54 192 C-53.34 192 -52.68 192 -52 192 C-52 191.34 -52 190.68 -52 190 C-51.34 190 -50.68 190 -50 190 C-50 189.34 -50 188.68 -50 188 C-48.625 186.375 -48.625 186.375 -47 185 C-46.34 185 -45.68 185 -45 185 C-45 184.34 -45 183.68 -45 183 C-44.34 183 -43.68 183 -43 183 C-43 182.34 -43 181.68 -43 181 C-42.34 181 -41.68 181 -41 181 C-41 179.68 -41 178.36 -41 177 C-40.34 177 -39.68 177 -39 177 C-39 176.34 -39 175.68 -39 175 C-34.68181818 170.34090909 -34.68181818 170.34090909 -32 169 C-32 168.01 -32 167.02 -32 166 C-31.34 166 -30.68 166 -30 166 C-30 165.34 -30 164.68 -30 164 C-29.34 164 -28.68 164 -28 164 C-28 163.34 -28 162.68 -28 162 C-27.34 162 -26.68 162 -26 162 C-25.34 160.35 -24.68 158.7 -24 157 C-23.34 157 -22.68 157 -22 157 C-22 156.34 -22 155.68 -22 155 C-21.34 155 -20.68 155 -20 155 C-20.33 154.01 -20.66 153.02 -21 152 C-20.34 151.01 -19.68 150.02 -19 149 C-18.34 149 -17.68 149 -17 149 C-17 148.34 -17 147.68 -17 147 C-16.34 147 -15.68 147 -15 147 C-15 146.01 -15 145.02 -15 144 C-14.34 144 -13.68 144 -13 144 C-13 143.34 -13 142.68 -13 142 C-12.34 142 -11.68 142 -11 142 C-11 140.68 -11 139.36 -11 138 C-10.34 138 -9.68 138 -9 138 C-9 136.68 -9 135.36 -9 134 C-8.34 134 -7.68 134 -7 134 C-6.67 132.35 -6.34 130.7 -6 129 C-5.34 129 -4.68 129 -4 129 C-4 127.68 -4 126.36 -4 125 C-3.34 125 -2.68 125 -2 125 C-2 123.68 -2 122.36 -2 121 C-1.34 121 -0.68 121 0 121 C0 119.68 0 118.36 0 117 C0.66 117 1.32 117 2 117 C2.144375 116.2575 2.28875 115.515 2.4375 114.75 C2.90187492 112.47972261 3.41863569 110.24240521 4 108 C4.66 108 5.32 108 6 108 C6.33 104.37 6.66 100.74 7 97 C7.66 97 8.32 97 9 97 C9 95.02 9 93.04 9 91 C9.66 91 10.32 91 11 91 C11 88.03 11 85.06 11 82 C11.66 82 12.32 82 13 82 C12.98839844 81.10796875 12.97679687 80.2159375 12.96484375 79.296875 C12.95582031 78.12640625 12.94679688 76.9559375 12.9375 75.75 C12.92589844 74.58984375 12.91429687 73.4296875 12.90234375 72.234375 C12.98406498 69.52776801 13.348054 67.57746095 14 65 C14.0926304 62.79321686 14.12998583 60.58372075 14.125 58.375 C14.12757813 57.22773437 14.13015625 56.08046875 14.1328125 54.8984375 C14.19920447 52.06023956 14.19920447 52.06023956 13 50 C12.92907158 47.7927077 12.91584975 45.58332548 12.9375 43.375 C12.94652344 42.18648437 12.95554687 40.99796875 12.96484375 39.7734375 C12.98224609 38.40058594 12.98224609 38.40058594 13 37 C12.34 37 11.68 37 11 37 C11 34.36 11 31.72 11 29 C10.34 29 9.68 29 9 29 C9 26.69 9 24.38 9 22 C8.34 22 7.68 22 7 22 C7.061875 21.278125 7.12375 20.55625 7.1875 19.8125 C7.2093828 16.9180056 7.2093828 16.9180056 5.5 14.5 C3.82526927 11.70878212 3.72643373 10.19160653 4 7 C3.34 7 2.68 7 2 7 C2 5.68 2 4.36 2 3 C1.34 3 0.68 3 0 3 C0 2.01 0 1.02 0 0 Z " fill="#0C1615" transform="translate(470,41)"/>
</svg>
